<svg width="24" height="24" viewBox="0 0 24 24" fill="none" xmlns="http://www.w3.org/2000/svg">
<path d="M12 22C13.9778 22 15.9112 21.4135 17.5557 20.3147C19.2002 19.2159 20.4819 17.6541 21.2388 15.8268C21.9957 13.9996 22.1937 11.9889 21.8079 10.0491C21.422 8.10929 20.4696 6.32746 19.0711 4.92894C17.6725 3.53041 15.8907 2.578 13.9509 2.19215C12.0111 1.8063 10.0004 2.00433 8.17317 2.76121C6.3459 3.51809 4.78412 4.79981 3.6853 6.4443C2.58649 8.08879 2 10.0222 2 12C2 14.6522 3.05357 17.1957 4.92893 19.0711C5.85752 19.9997 6.95991 20.7363 8.17317 21.2388C9.38642 21.7413 10.6868 22 12 22ZM13.08 19.92C13.3171 18.1895 14.114 16.5842 15.3491 15.3491C16.5842 14.114 18.1895 13.3171 19.92 13.08C19.6829 14.8105 18.886 16.4158 17.6509 17.6509C16.4158 18.886 14.8105 19.6829 13.08 19.92ZM19.94 11.06C17.6681 11.303 15.5479 12.3166 13.9322 13.9322C12.3166 15.5479 11.303 17.6681 11.06 19.94C9.27691 19.7281 7.61695 18.9225 6.34724 17.6528C5.07753 16.3831 4.27191 14.7231 4.06 12.94C6.33191 12.6971 8.45212 11.6834 10.0678 10.0678C11.6834 8.45212 12.697 6.33192 12.94 4.06C14.7231 4.27191 16.383 5.07754 17.6528 6.34725C18.9225 7.61696 19.7281 9.27691 19.94 11.06ZM10.94 4.06C10.7029 5.79049 9.90597 7.39583 8.6709 8.63091C7.43583 9.86598 5.83049 10.6629 4.1 10.9C4.3401 9.17606 5.13589 7.57745 6.36667 6.34667C7.59745 5.1159 9.19605 4.3201 10.92 4.08L10.94 4.06Z" fill="white"/>
</svg>
