<svg width="20" height="20" viewBox="0 0 20 20" fill="none" xmlns="http://www.w3.org/2000/svg">
<path d="M10 20C11.9778 20 13.9112 19.4135 15.5557 18.3147C17.2002 17.2159 18.4819 15.6541 19.2388 13.8268C19.9957 11.9996 20.1937 9.98891 19.8079 8.0491C19.422 6.10929 18.4696 4.32746 17.0711 2.92894C15.6725 1.53041 13.8907 0.578004 11.9509 0.192152C10.0111 -0.193701 8.00043 0.00433284 6.17317 0.761209C4.3459 1.51809 2.78412 2.79981 1.6853 4.4443C0.58649 6.08879 0 8.02219 0 10C0 12.6522 1.05357 15.1957 2.92893 17.0711C3.85752 17.9997 4.95991 18.7363 6.17317 19.2388C7.38642 19.7413 8.68678 20 10 20V20ZM11.08 17.92C11.3171 16.1895 12.114 14.5842 13.3491 13.3491C14.5842 12.114 16.1895 11.3171 17.92 11.08C17.6829 12.8105 16.886 14.4158 15.6509 15.6509C14.4158 16.886 12.8105 17.6829 11.08 17.92V17.92ZM17.94 9.06001C15.6681 9.30296 13.5479 10.3166 11.9322 11.9322C10.3166 13.5479 9.30295 15.6681 9.06 17.94C7.27691 17.7281 5.61695 16.9225 4.34724 15.6528C3.07753 14.3831 2.27191 12.7231 2.06 10.94C4.33191 10.6971 6.45212 9.68341 8.06776 8.06776C9.6834 6.45212 10.697 4.33192 10.94 2.06C12.7231 2.27191 14.383 3.07754 15.6528 4.34725C16.9225 5.61696 17.7281 7.27691 17.94 9.06001V9.06001ZM8.94 2.06C8.7029 3.79049 7.90597 5.39583 6.6709 6.63091C5.43583 7.86598 3.83049 8.66291 2.1 8.9C2.3401 7.17606 3.13589 5.57745 4.36667 4.34667C5.59745 3.1159 7.19606 2.3201 8.92 2.08L8.94 2.06Z" fill="#02AC02"/>
</svg>
