<svg width="73" height="44" viewBox="0 0 73 44" fill="none" xmlns="http://www.w3.org/2000/svg">
<path d="M27 8L36 1L45 8V19C45 19.5304 44.7893 20.0391 44.4142 20.4142C44.0391 20.7893 43.5304 21 43 21H29C28.4696 21 27.9609 20.7893 27.5858 20.4142C27.2107 20.0391 27 19.5304 27 19V8Z" stroke="#2A2A2A" stroke-width="2" stroke-linecap="round" stroke-linejoin="round"/>
<path d="M33 21V11H39V21" stroke="#2A2A2A" stroke-width="2" stroke-linecap="round" stroke-linejoin="round"/>
<path d="M24.0847 29.504H25.5967V32.888H29.5687V29.504H31.0807V38H29.5687V34.256H25.5967V38H24.0847V29.504ZM34.2493 35.624C34.2973 36.056 34.4653 36.392 34.7533 36.632C35.0413 36.872 35.3893 36.992 35.7973 36.992C36.1573 36.992 36.4573 36.92 36.6973 36.776C36.9453 36.624 37.1613 36.436 37.3453 36.212L38.3773 36.992C38.0413 37.408 37.6653 37.704 37.2493 37.88C36.8333 38.056 36.3973 38.144 35.9413 38.144C35.5093 38.144 35.1013 38.072 34.7173 37.928C34.3333 37.784 34.0013 37.58 33.7213 37.316C33.4413 37.052 33.2173 36.736 33.0493 36.368C32.8893 35.992 32.8093 35.576 32.8093 35.12C32.8093 34.664 32.8893 34.252 33.0493 33.884C33.2173 33.508 33.4413 33.188 33.7213 32.924C34.0013 32.66 34.3333 32.456 34.7173 32.312C35.1013 32.168 35.5093 32.096 35.9413 32.096C36.3413 32.096 36.7053 32.168 37.0333 32.312C37.3693 32.448 37.6533 32.648 37.8853 32.912C38.1253 33.176 38.3093 33.504 38.4373 33.896C38.5733 34.28 38.6413 34.724 38.6413 35.228V35.624H34.2493ZM37.2013 34.544C37.1933 34.12 37.0613 33.788 36.8053 33.548C36.5493 33.3 36.1933 33.176 35.7373 33.176C35.3053 33.176 34.9613 33.3 34.7053 33.548C34.4573 33.796 34.3053 34.128 34.2493 34.544H37.2013ZM40.1779 32.24H41.5459V33.14H41.5699C41.6979 32.868 41.9019 32.628 42.1819 32.42C42.4699 32.204 42.8539 32.096 43.3339 32.096C44.2379 32.096 44.8379 32.452 45.1339 33.164C45.3419 32.796 45.6019 32.528 45.9139 32.36C46.2259 32.184 46.5979 32.096 47.0299 32.096C47.4139 32.096 47.7379 32.16 48.0019 32.288C48.2659 32.416 48.4779 32.592 48.6379 32.816C48.8059 33.04 48.9259 33.304 48.9979 33.608C49.0699 33.904 49.1059 34.224 49.1059 34.568V38H47.6659V34.736C47.6659 34.56 47.6499 34.392 47.6179 34.232C47.5859 34.064 47.5299 33.92 47.4499 33.8C47.3699 33.672 47.2619 33.572 47.1259 33.5C46.9899 33.428 46.8139 33.392 46.5979 33.392C46.3739 33.392 46.1819 33.436 46.0219 33.524C45.8699 33.604 45.7419 33.716 45.6379 33.86C45.5419 33.996 45.4699 34.156 45.4219 34.34C45.3819 34.516 45.3619 34.696 45.3619 34.88V38H43.9219V34.568C43.9219 34.208 43.8459 33.924 43.6939 33.716C43.5419 33.5 43.2899 33.392 42.9379 33.392C42.6979 33.392 42.4939 33.432 42.3259 33.512C42.1659 33.592 42.0299 33.7 41.9179 33.836C41.8139 33.972 41.7379 34.128 41.6899 34.304C41.6419 34.48 41.6179 34.664 41.6179 34.856V38H40.1779V32.24Z" fill="#2A2A2A"/>
</svg>
