<svg width="73" height="44" viewBox="0 0 73 44" fill="none" xmlns="http://www.w3.org/2000/svg">
<g opacity="0.4">
<path d="M45 20V18C45 16.9391 44.5786 15.9217 43.8284 15.1716C43.0783 14.4214 42.0609 14 41 14H33C31.9391 14 30.9217 14.4214 30.1716 15.1716C29.4214 15.9217 29 16.9391 29 18V20" stroke="#2A2A2A" stroke-width="2" stroke-linecap="round" stroke-linejoin="round"/>
<path d="M37 10C39.2091 10 41 8.20914 41 6C41 3.79086 39.2091 2 37 2C34.7909 2 33 3.79086 33 6C33 8.20914 34.7909 10 37 10Z" stroke="#2A2A2A" stroke-width="2" stroke-linecap="round" stroke-linejoin="round"/>
</g>
<path opacity="0.4" d="M22.2761 29.504H25.1321C25.5401 29.504 25.9321 29.544 26.3081 29.624C26.6921 29.704 27.0281 29.84 27.3161 30.032C27.6041 30.216 27.8321 30.468 28.0001 30.788C28.1761 31.1 28.2641 31.492 28.2641 31.964C28.2641 32.5 28.1721 32.932 27.9881 33.26C27.8041 33.588 27.5561 33.844 27.2441 34.028C26.9321 34.204 26.5681 34.324 26.1521 34.388C25.7441 34.452 25.3161 34.484 24.8681 34.484H23.7881V38H22.2761V29.504ZM24.7001 33.188C24.9161 33.188 25.1401 33.18 25.3721 33.164C25.6041 33.148 25.8161 33.1 26.0081 33.02C26.2081 32.94 26.3681 32.82 26.4881 32.66C26.6161 32.5 26.6801 32.276 26.6801 31.988C26.6801 31.724 26.6241 31.516 26.5121 31.364C26.4001 31.204 26.2561 31.084 26.0801 31.004C25.9041 30.916 25.7081 30.86 25.4921 30.836C25.2761 30.812 25.0681 30.8 24.8681 30.8H23.7881V33.188H24.7001ZM29.7301 32.24H31.1701V33.152H31.1941C31.3541 32.816 31.5821 32.556 31.8781 32.372C32.1741 32.188 32.5141 32.096 32.8981 32.096C32.9861 32.096 33.0701 32.104 33.1501 32.12C33.2381 32.136 33.3261 32.156 33.4141 32.18V33.572C33.2941 33.54 33.1741 33.516 33.0541 33.5C32.9421 33.476 32.8301 33.464 32.7181 33.464C32.3821 33.464 32.1101 33.528 31.9021 33.656C31.7021 33.776 31.5461 33.916 31.4341 34.076C31.3301 34.236 31.2581 34.396 31.2181 34.556C31.1861 34.716 31.1701 34.836 31.1701 34.916V38H29.7301V32.24ZM34.1452 35.12C34.1452 34.664 34.2252 34.252 34.3852 33.884C34.5532 33.508 34.7772 33.188 35.0572 32.924C35.3372 32.66 35.6692 32.456 36.0532 32.312C36.4372 32.168 36.8452 32.096 37.2772 32.096C37.7092 32.096 38.1172 32.168 38.5012 32.312C38.8852 32.456 39.2172 32.66 39.4972 32.924C39.7772 33.188 39.9972 33.508 40.1572 33.884C40.3252 34.252 40.4092 34.664 40.4092 35.12C40.4092 35.576 40.3252 35.992 40.1572 36.368C39.9972 36.736 39.7772 37.052 39.4972 37.316C39.2172 37.58 38.8852 37.784 38.5012 37.928C38.1172 38.072 37.7092 38.144 37.2772 38.144C36.8452 38.144 36.4372 38.072 36.0532 37.928C35.6692 37.784 35.3372 37.58 35.0572 37.316C34.7772 37.052 34.5532 36.736 34.3852 36.368C34.2252 35.992 34.1452 35.576 34.1452 35.12ZM35.5852 35.12C35.5852 35.344 35.6212 35.56 35.6932 35.768C35.7732 35.976 35.8852 36.16 36.0292 36.32C36.1812 36.48 36.3612 36.608 36.5692 36.704C36.7772 36.8 37.0132 36.848 37.2772 36.848C37.5412 36.848 37.7772 36.8 37.9852 36.704C38.1932 36.608 38.3692 36.48 38.5132 36.32C38.6652 36.16 38.7772 35.976 38.8492 35.768C38.9292 35.56 38.9692 35.344 38.9692 35.12C38.9692 34.896 38.9292 34.68 38.8492 34.472C38.7772 34.264 38.6652 34.08 38.5132 33.92C38.3692 33.76 38.1932 33.632 37.9852 33.536C37.7772 33.44 37.5412 33.392 37.2772 33.392C37.0132 33.392 36.7772 33.44 36.5692 33.536C36.3612 33.632 36.1812 33.76 36.0292 33.92C35.8852 34.08 35.7732 34.264 35.6932 34.472C35.6212 34.68 35.5852 34.896 35.5852 35.12ZM42.5234 33.464H41.3354V32.24H42.5234V31.424C42.5234 31.024 42.5514 30.664 42.6074 30.344C42.6634 30.016 42.7674 29.736 42.9194 29.504C43.0794 29.272 43.2994 29.096 43.5794 28.976C43.8594 28.848 44.2234 28.784 44.6714 28.784C44.9994 28.784 45.3034 28.812 45.5834 28.868L45.4874 30.092C45.3834 30.068 45.2834 30.048 45.1874 30.032C45.0914 30.016 44.9914 30.008 44.8874 30.008C44.6874 30.008 44.5274 30.04 44.4074 30.104C44.2874 30.168 44.1914 30.256 44.1194 30.368C44.0554 30.472 44.0114 30.596 43.9874 30.74C43.9714 30.884 43.9634 31.036 43.9634 31.196V32.24H45.2954V33.464H43.9634V38H42.5234V33.464ZM46.2314 32.24H47.6714V38H46.2314V32.24ZM46.0394 30.284C46.0394 30.052 46.1234 29.852 46.2914 29.684C46.4674 29.508 46.6874 29.42 46.9514 29.42C47.2154 29.42 47.4354 29.504 47.6114 29.672C47.7954 29.832 47.8874 30.036 47.8874 30.284C47.8874 30.532 47.7954 30.74 47.6114 30.908C47.4354 31.068 47.2154 31.148 46.9514 31.148C46.6874 31.148 46.4674 31.064 46.2914 30.896C46.1234 30.72 46.0394 30.516 46.0394 30.284ZM49.3947 28.928H50.8347V38H49.3947V28.928Z" fill="#2A2A2A"/>
</svg>
