<svg width="73" height="44" viewBox="0 0 73 44" fill="none" xmlns="http://www.w3.org/2000/svg">
<g opacity="0.4">
<path d="M32.4211 5.17572H45.4211" stroke="#2A2A2A" stroke-width="2" stroke-linecap="round" stroke-linejoin="round"/>
<path d="M32.4211 11.1757H45.4211" stroke="#2A2A2A" stroke-width="2" stroke-linecap="round" stroke-linejoin="round"/>
<path d="M32.4211 17.1757H45.4211" stroke="#2A2A2A" stroke-width="2" stroke-linecap="round" stroke-linejoin="round"/>
<path d="M27.4211 5.17572H27.4311" stroke="#2A2A2A" stroke-width="2" stroke-linecap="round" stroke-linejoin="round"/>
<path d="M27.4211 11.1757H27.4311" stroke="#2A2A2A" stroke-width="2" stroke-linecap="round" stroke-linejoin="round"/>
<path d="M27.4211 17.1757H27.4311" stroke="#2A2A2A" stroke-width="2" stroke-linecap="round" stroke-linejoin="round"/>
</g>
<path opacity="0.4" d="M24.4284 31.328C24.2684 31.096 24.0524 30.928 23.7804 30.824C23.5164 30.712 23.2364 30.656 22.9404 30.656C22.7644 30.656 22.5924 30.676 22.4244 30.716C22.2644 30.756 22.1164 30.82 21.9804 30.908C21.8524 30.996 21.7484 31.112 21.6684 31.256C21.5884 31.392 21.5484 31.556 21.5484 31.748C21.5484 32.036 21.6484 32.256 21.8484 32.408C22.0484 32.56 22.2964 32.692 22.5924 32.804C22.8884 32.916 23.2124 33.024 23.5644 33.128C23.9164 33.232 24.2404 33.376 24.5364 33.56C24.8324 33.744 25.0804 33.988 25.2804 34.292C25.4804 34.596 25.5804 35 25.5804 35.504C25.5804 35.96 25.4964 36.36 25.3284 36.704C25.1604 37.04 24.9324 37.32 24.6444 37.544C24.3644 37.768 24.0364 37.936 23.6604 38.048C23.2844 38.16 22.8884 38.216 22.4724 38.216C21.9444 38.216 21.4364 38.128 20.9484 37.952C20.4604 37.776 20.0404 37.48 19.6884 37.064L20.8284 35.96C21.0124 36.24 21.2524 36.46 21.5484 36.62C21.8524 36.772 22.1724 36.848 22.5084 36.848C22.6844 36.848 22.8604 36.824 23.0364 36.776C23.2124 36.728 23.3724 36.656 23.5164 36.56C23.6604 36.464 23.7764 36.344 23.8644 36.2C23.9524 36.048 23.9964 35.876 23.9964 35.684C23.9964 35.372 23.8964 35.132 23.6964 34.964C23.4964 34.796 23.2484 34.656 22.9524 34.544C22.6564 34.424 22.3324 34.312 21.9804 34.208C21.6284 34.104 21.3044 33.964 21.0084 33.788C20.7124 33.604 20.4644 33.364 20.2644 33.068C20.0644 32.764 19.9644 32.36 19.9644 31.856C19.9644 31.416 20.0524 31.036 20.2284 30.716C20.4124 30.396 20.6484 30.132 20.9364 29.924C21.2324 29.708 21.5684 29.548 21.9444 29.444C22.3204 29.34 22.7044 29.288 23.0964 29.288C23.5444 29.288 23.9764 29.356 24.3924 29.492C24.8164 29.628 25.1964 29.852 25.5324 30.164L24.4284 31.328ZM28.425 35.624C28.473 36.056 28.641 36.392 28.929 36.632C29.217 36.872 29.565 36.992 29.973 36.992C30.333 36.992 30.633 36.92 30.873 36.776C31.121 36.624 31.337 36.436 31.521 36.212L32.553 36.992C32.217 37.408 31.841 37.704 31.425 37.88C31.009 38.056 30.573 38.144 30.117 38.144C29.685 38.144 29.277 38.072 28.893 37.928C28.509 37.784 28.177 37.58 27.897 37.316C27.617 37.052 27.393 36.736 27.225 36.368C27.065 35.992 26.985 35.576 26.985 35.12C26.985 34.664 27.065 34.252 27.225 33.884C27.393 33.508 27.617 33.188 27.897 32.924C28.177 32.66 28.509 32.456 28.893 32.312C29.277 32.168 29.685 32.096 30.117 32.096C30.517 32.096 30.881 32.168 31.209 32.312C31.545 32.448 31.829 32.648 32.061 32.912C32.301 33.176 32.485 33.504 32.613 33.896C32.749 34.28 32.817 34.724 32.817 35.228V35.624H28.425ZM31.377 34.544C31.369 34.12 31.237 33.788 30.981 33.548C30.725 33.3 30.369 33.176 29.913 33.176C29.481 33.176 29.137 33.3 28.881 33.548C28.633 33.796 28.481 34.128 28.425 34.544H31.377ZM34.4137 32.24H35.8537V33.152H35.8777C36.0377 32.816 36.2657 32.556 36.5617 32.372C36.8577 32.188 37.1977 32.096 37.5817 32.096C37.6697 32.096 37.7537 32.104 37.8337 32.12C37.9217 32.136 38.0097 32.156 38.0977 32.18V33.572C37.9777 33.54 37.8577 33.516 37.7377 33.5C37.6257 33.476 37.5137 33.464 37.4017 33.464C37.0657 33.464 36.7937 33.528 36.5857 33.656C36.3857 33.776 36.2297 33.916 36.1177 34.076C36.0137 34.236 35.9417 34.396 35.9017 34.556C35.8697 34.716 35.8537 34.836 35.8537 34.916V38H34.4137V32.24ZM39.3517 32.24H40.7917V38H39.3517V32.24ZM39.1477 30.284C39.1477 30.052 39.2317 29.852 39.3997 29.684C39.5757 29.508 39.7957 29.42 40.0597 29.42C40.3237 29.42 40.5437 29.504 40.7197 29.672C40.9037 29.832 40.9957 30.036 40.9957 30.284C40.9957 30.532 40.9037 30.74 40.7197 30.908C40.5437 31.068 40.3237 31.148 40.0597 31.148C39.7957 31.148 39.5757 31.064 39.3997 30.896C39.2317 30.72 39.1477 30.516 39.1477 30.284ZM43.8469 35.624C43.8949 36.056 44.0629 36.392 44.3509 36.632C44.6389 36.872 44.9869 36.992 45.3949 36.992C45.7549 36.992 46.0549 36.92 46.2949 36.776C46.5429 36.624 46.7589 36.436 46.9429 36.212L47.9749 36.992C47.6389 37.408 47.2629 37.704 46.8469 37.88C46.4309 38.056 45.9949 38.144 45.5389 38.144C45.1069 38.144 44.6989 38.072 44.3149 37.928C43.9309 37.784 43.5989 37.58 43.3189 37.316C43.0389 37.052 42.8149 36.736 42.6469 36.368C42.4869 35.992 42.4069 35.576 42.4069 35.12C42.4069 34.664 42.4869 34.252 42.6469 33.884C42.8149 33.508 43.0389 33.188 43.3189 32.924C43.5989 32.66 43.9309 32.456 44.3149 32.312C44.6989 32.168 45.1069 32.096 45.5389 32.096C45.9389 32.096 46.3029 32.168 46.6309 32.312C46.9669 32.448 47.2509 32.648 47.4829 32.912C47.7229 33.176 47.9069 33.504 48.0349 33.896C48.1709 34.28 48.2389 34.724 48.2389 35.228V35.624H43.8469ZM46.7989 34.544C46.7909 34.12 46.6589 33.788 46.4029 33.548C46.1469 33.3 45.7909 33.176 45.3349 33.176C44.9029 33.176 44.5589 33.3 44.3029 33.548C44.0549 33.796 43.9029 34.128 43.8469 34.544H46.7989ZM49.8355 32.24H51.2755V33.152H51.2995C51.4595 32.816 51.6875 32.556 51.9835 32.372C52.2795 32.188 52.6195 32.096 53.0035 32.096C53.0915 32.096 53.1755 32.104 53.2555 32.12C53.3435 32.136 53.4315 32.156 53.5195 32.18V33.572C53.3995 33.54 53.2795 33.516 53.1595 33.5C53.0475 33.476 52.9355 33.464 52.8235 33.464C52.4875 33.464 52.2155 33.528 52.0075 33.656C51.8075 33.776 51.6515 33.916 51.5395 34.076C51.4355 34.236 51.3635 34.396 51.3235 34.556C51.2915 34.716 51.2755 34.836 51.2755 34.916V38H49.8355V32.24Z" fill="#2A2A2A"/>
</svg>
